<svg id="Layer_1" data-name="Layer 1" xmlns="http://www.w3.org/2000/svg" viewBox="0 0 500 500"><path d="M283.92,390.94a15.82,15.82,0,0,1-7.19-1.71c-51.17-25.61-100.91-25.61-152.08,0a16.09,16.09,0,1,1-14.41-28.77c60-30,120.88-30,180.89,0a16.09,16.09,0,0,1-7.21,30.48ZM200.69,366c25.82,0,51.64,6.56,77.83,19.67a12.08,12.08,0,0,0,16.22-5.4,12.1,12.1,0,0,0-5.4-16.22c-58.82-29.45-118.48-29.45-177.3,0a12.09,12.09,0,0,0,10.82,21.62C149,372.55,174.87,366,200.69,366Z"/><path d="M281.43,404a30.18,30.18,0,0,1-30-25.6,2,2,0,0,1,4-.62,26.32,26.32,0,1,0,10-25.05,2,2,0,1,1-2.43-3.18A30.33,30.33,0,1,1,281.43,404Z"/><path d="M120.3,404a30.33,30.33,0,1,1,18.4-54.45,2,2,0,1,1-2.43,3.18,26.08,26.08,0,0,0-16-5.39,26.33,26.33,0,1,0,26,30.44,2,2,0,0,1,3.95.62A30.16,30.16,0,0,1,120.3,404Z"/><path d="M112.46,347.61a2,2,0,0,1-1.91-1.41A22.59,22.59,0,0,1,132.13,317a2,2,0,0,1,0,4,18.58,18.58,0,0,0-18.56,18.56,18.85,18.85,0,0,0,.8,5.44,2,2,0,0,1-1.32,2.49A2.06,2.06,0,0,1,112.46,347.61Z"/><path d="M257.83,350.64a2,2,0,0,1-1.8-1.13c-5.79-12.07-18.2-27.54-44.49-32.7-10.15-2-16.59-10.11-18.14-22.84-2.81-23,10.77-55,26.41-62.34,7.33-3.42,10.75-8.61,9.14-13.89-2.49-8.23-16.35-15.25-37.1-12.05-34.31,5.3-64.78,39.58-65.74,58.3-.51,10,2.08,15.53,4.57,20.84,2,4.36,4.17,8.86,4.17,15.36,0,13.42.11,26.52.11,26.65a2,2,0,0,1-2,2h0a2,2,0,0,1-2-2c0-.13-.11-13.24-.11-26.68,0-5.61-1.75-9.34-3.78-13.65-2.59-5.49-5.51-11.72-4.95-22.76,1-20.45,32.43-56.38,69.13-62,23.22-3.58,38.47,4.75,41.53,14.84,2.2,7.25-2.12,14.4-11.28,18.68-14.08,6.57-26.71,37.05-24.13,58.23.93,7.69,4.29,17.3,14.94,19.39,27.92,5.49,41.15,22,47.33,34.9a2,2,0,0,1-.94,2.67A2.07,2.07,0,0,1,257.83,350.64Z"/><path d="M289.91,278.88a12.58,12.58,0,0,1-4.61-.88l-17.91-7.1a11,11,0,0,1-6.9-9.38l-.4-5.3-21.53-12.94a31.55,31.55,0,0,1-33.2,7.49,2,2,0,0,1,1.37-3.76,27.55,27.55,0,0,0,30-7.6,2,2,0,0,1,2.52-.39L263,253.33a2,2,0,0,1,1,1.56l.48,6.33a7,7,0,0,0,4.38,6l17.92,7.1a8.51,8.51,0,0,0,9.59-2.37l33.21-38.71.07-.09a7,7,0,0,0-9.08-10.62L291.31,243.1a2,2,0,0,1-2,.16l-44.5-21.41a2,2,0,0,1-1.13-1.73c0-.36,0-.72-.06-1.09a27.55,27.55,0,0,0-48.81-15.36,2,2,0,0,1-3.1-2.53,31.26,31.26,0,0,1,22.06-11.5,31.58,31.58,0,0,1,33.84,29.09v0L290,239.15l28.29-19.93a11,11,0,0,1,14.31,16.63L299.4,274.51A12.49,12.49,0,0,1,289.91,278.88Z"/><path d="M326.21,249.46a22.63,22.63,0,0,1-5.68-.73,2,2,0,1,1,1-3.87,18.44,18.44,0,1,0-13.64-15.42,2,2,0,0,1-4,.52,22.47,22.47,0,1,1,22.27,19.5Z"/><path d="M267.51,232.5a1.94,1.94,0,0,1-1.08-.32,2,2,0,0,1-.59-2.77,31.32,31.32,0,0,1,41.09-10.57,2,2,0,1,1-1.9,3.52,27.33,27.33,0,0,0-35.84,9.23A2,2,0,0,1,267.51,232.5Z"/><path d="M286.76,263.7a7.43,7.43,0,1,1,.57,0Zm0-10.95h-.26a3.45,3.45,0,1,0,.26,0Z"/><path d="M355.91,227.24a2.25,2.25,0,0,1-.58-.08,2,2,0,0,1-1.34-1.34l-6.69-22.14a2,2,0,0,1,.68-2.15L360.19,192l36.94-88.3a2,2,0,0,1,1.16-1.1l9-3.33a2,2,0,0,1,2.62,2.39L382.74,205a2,2,0,0,1-.65,1l-24.9,20.8A2,2,0,0,1,355.91,227.24Zm-4.39-23.4L357,221.77,379,203.32l26.08-98.95-4.64,1.7-36.8,88a2,2,0,0,1-.62.8Zm10.31-10.57h0Z"/><path d="M349.21,205.1a2,2,0,0,1-.49-.06l-41.18-10.47a2,2,0,1,1,1-3.88l38.75,9.86,2.56-88a2,2,0,0,1,1.66-1.92l47.13-8.16a2,2,0,1,1,.68,3.94l-45.52,7.89-2.58,88.81a2,2,0,0,1-.8,1.54A2,2,0,0,1,349.21,205.1Z"/><path d="M309.75,216.83a2,2,0,0,1-1.86-1.26l-7.2-17.85a2,2,0,0,1,.61-2.32l5.17-4.09,43.62-79.62a2,2,0,0,1,3.51,1.92l-43.81,80a2,2,0,0,1-.52.61L305,197.61l6.64,16.47a2,2,0,0,1-1.11,2.6A1.92,1.92,0,0,1,309.75,216.83Z"/><path d="M120.5,347.38l-.33,0a2,2,0,0,1-1.64-2.3,29,29,0,0,1,28.67-24.26A29.26,29.26,0,0,1,175,341.47a2,2,0,1,1-3.83,1.15,25.08,25.08,0,0,0-48.74,3.09A2,2,0,0,1,120.5,347.38Z"/><path d="M276.21,349.9a2,2,0,0,1-1.92-1.42,25.1,25.1,0,0,0-30.43-17,2,2,0,1,1-1-3.86,29.07,29.07,0,0,1,35.28,19.72,2,2,0,0,1-1.33,2.49A2.38,2.38,0,0,1,276.21,349.9Z"/><path d="M157.91,219.41l-.25,0a2,2,0,0,1-1.73-2.24,31.68,31.68,0,0,1,46.79-23.62,2,2,0,1,1-1.94,3.49,27.7,27.7,0,0,0-40.89,20.64A2,2,0,0,1,157.91,219.41Z"/><path d="M355.91,227.24l-.3,0-9.48-1.43a2,2,0,0,1,.6-4l9.48,1.43a2,2,0,0,1-.3,4Z"/></svg>