<svg id="Layer_1" data-name="Layer 1" xmlns="http://www.w3.org/2000/svg" viewBox="0 0 500 500"><path d="M251.69,346a1.64,1.64,0,0,1-.38,0L137.12,324a2,2,0,0,1-1.61-2.17l1.74-17a2,2,0,1,1,4,.41l-1.56,15.19,110.25,21.15L268.64,158.7,158.39,137.56,145.86,260a2,2,0,0,1-2.19,1.79,2,2,0,0,1-1.79-2.2L154.64,135a2,2,0,0,1,2.36-1.76l114.19,21.9a2,2,0,0,1,1.61,2.17L253.68,344.17a2,2,0,0,1-2,1.79Z"/><path d="M290.07,346.33h0L251.67,346a2,2,0,0,1-1.47-.67,2,2,0,0,1-.5-1.53l19.13-186.88a2,2,0,0,1,2-1.8l116.27,1a2,2,0,0,1,1.48.67,2,2,0,0,1,.49,1.55l-9.2,83.76a2,2,0,1,1-4-.44l9-81.56-112.23-1L253.9,342l36.19.35a2,2,0,0,1,0,4Z"/><path d="M387.08,160.11l-.34,0L271.66,140.29l-115.09-3.11a2,2,0,0,1-1.94-2.05,2,2,0,0,1,2.05-1.95l115.23,3.11a1.33,1.33,0,0,1,.28,0l115.23,19.82a2,2,0,0,1-.34,4Z"/><path d="M349.13,406.72A54,54,0,0,1,335.55,405c-17.44-4.53-31.55-17.42-39.75-36.31-8.12-18.71-9.46-41.11-3.76-63.07,11.81-45.5,50.54-75,86.34-65.67,17.44,4.52,31.55,17.41,39.75,36.3,8.12,18.72,9.46,41.11,3.76,63.07h0c-5.7,22-17.76,40.88-34,53.28C375.78,401.9,362.38,406.72,349.13,406.72Zm15.77-164.5c-29.78,0-59.11,26.35-69,64.4-5.47,21.09-4.21,42.57,3.56,60.47,7.7,17.73,20.87,29.82,37.08,34s33.6.05,48.95-11.7,27.05-30,32.52-51.11h0c5.48-21.1,4.21-42.58-3.56-60.48-7.7-17.73-20.86-29.81-37.08-34A49.22,49.22,0,0,0,364.9,242.22ZM420,338.81h0Z"/><path d="M348.38,406.42a2.22,2.22,0,0,1-.51-.06c-17.42-4.53-31.58-17.23-39.87-35.78-8.21-18.4-9.66-40.38-4.08-61.89,11.56-44.56,50.1-73.25,85.9-64a2,2,0,0,1-1,3.87c-33.66-8.74-70,18.67-81,61.1-5.35,20.63-4,41.67,3.87,59.24s21,29.34,37.22,33.55a2,2,0,0,1-.5,3.93Z"/><path d="M140.48,366.25c-.7,0-1.39,0-2.09,0-18-.71-34.53-10.3-46.56-27-11.92-16.56-18-38.16-17.1-60.83s8.65-43.72,21.84-59.29,30.52-24,48.55-23.26c1.65.07,3.32.21,4.95.43a2,2,0,0,1-.53,4c-1.51-.21-3-.34-4.58-.4-16.73-.65-32.84,7.1-45.34,21.85s-20,35.08-20.89,56.86,4.94,42.5,16.35,58.33,26.73,24.69,43.47,25.35a52.33,52.33,0,0,0,30.29-8.53,2,2,0,0,1,2.15,3.37A56.59,56.59,0,0,1,140.48,366.25Z"/><path d="M150.81,364.93h-.08c-18-.71-34.53-10.11-46.58-26.48s-18-37.39-17.16-59.59c1.67-42.31,28.49-76.93,62.39-80.52a2,2,0,1,1,.42,4C117.87,205.7,92.58,238.67,91,279c-.84,21.3,5,41.57,16.39,57.07s26.75,24.19,43.5,24.85a2,2,0,0,1-.07,4Z"/><path d="M362,353.5a13,13,0,0,1-2.24-.2c-5.08-.92-9.22-4.89-11.65-11.18-2.31-6-2.83-13.37-1.47-20.88s4.44-14.28,8.68-19.05c4.48-5.05,9.75-7.32,14.82-6.4,10.28,1.86,16,15.94,13.13,32.06h0C380.61,342.8,371.53,353.5,362,353.5ZM368,299.59c-3.23,0-6.59,1.83-9.64,5.25-3.76,4.24-6.51,10.31-7.74,17.11s-.78,13.45,1.27,18.72c1.91,4.95,5,8,8.63,8.69,7.81,1.4,16.43-8.77,18.86-22.22h0c2.43-13.45-2.1-26-9.9-27.41A8.15,8.15,0,0,0,368,299.59Zm13.35,27.91h0Z"/><path d="M307.57,386.24h-.12a65.74,65.74,0,0,1-57.63-42.44,2,2,0,1,1,3.74-1.41,61.71,61.71,0,0,0,54.12,39.85,2,2,0,0,1-.11,4Z"/><path d="M290.07,382.71a1.69,1.69,0,0,1-.38,0L191.88,364c-31.53-6.66-48.34-18.88-56.26-40.85a2,2,0,0,1,3.76-1.36c7.49,20.78,22.93,31.87,53.29,38.29l97.77,18.67a2,2,0,0,1-.37,4Z"/><path d="M197.59,322c-.71,0-1.42,0-2.14-.11-7.07-.73-13.33-5-17.6-12a41.11,41.11,0,0,1,4.83-47.14c5.6-6,12.58-8.86,19.66-8.14,14.4,1.48,24.56,17.76,22.66,36.3a39.15,39.15,0,0,1-9.88,22.8C210.08,319.15,203.92,322,197.59,322Zm2.63-63.45c-5.22,0-10.36,2.43-14.63,7a37.14,37.14,0,0,0-4.33,42.31c3.61,5.9,8.79,9.47,14.6,10.07s11.61-1.86,16.34-6.9A35.12,35.12,0,0,0,221,290.57c1.68-16.34-6.89-30.66-19.09-31.91A16.31,16.31,0,0,0,200.22,258.58Z"/><path d="M216.42,311a2,2,0,0,1-1.41-.58c-5.45-5.38-8.16-14-7.23-23,.84-8.17,4.5-15.4,10.05-19.83a2,2,0,0,1,2.5,3.12c-4.65,3.72-7.85,10.11-8.57,17.11-.79,7.71,1.53,15.27,6.07,19.75a2,2,0,0,1-1.41,3.42Z"/><path d="M127.84,309.61A28.59,28.59,0,1,1,156.43,281,28.62,28.62,0,0,1,127.84,309.61Zm0-53.18A24.59,24.59,0,1,0,152.43,281,24.62,24.62,0,0,0,127.84,256.43Z"/><path d="M161.15,261.84a2.07,2.07,0,0,1-.35,0l-31.28-5.41a2,2,0,1,1,.69-3.94l31.28,5.41a2,2,0,0,1-.34,4Z"/><path d="M159.12,315a2,2,0,0,1-.34,0l-31.28-5.41a2,2,0,1,1,.68-3.94l31.28,5.41a2,2,0,0,1-.34,4Z"/><path d="M163.16,300.17a2,2,0,0,1-.34,0l-13.27-2.3a2,2,0,1,1,.69-3.94l13.26,2.3a2,2,0,0,1-.34,4Z"/><path d="M161.15,276.37a2.07,2.07,0,0,1-.35,0l-6.71-1.16a2,2,0,1,1,.68-3.94l6.72,1.16a2,2,0,0,1-.34,4Z"/><path d="M380.92,212.91H265a1.69,1.69,0,0,1-.38,0l-113-22a2,2,0,1,1,.76-3.92l112.86,21.94H380.92a2,2,0,0,1,0,4Z"/></svg>