<svg id="Layer_1" data-name="Layer 1" xmlns="http://www.w3.org/2000/svg" viewBox="0 0 500 500"><path d="M310.59,340.75a2,2,0,0,1-1.88-1.32L294,298.38a2,2,0,1,1,3.76-1.35l14.75,41.05a2,2,0,0,1-1.21,2.55A1.76,1.76,0,0,1,310.59,340.75Z"/><path d="M297.56,339.29A2,2,0,0,1,295.7,338l-15.2-39.59a2,2,0,1,1,3.73-1.43l15.2,39.58a2,2,0,0,1-1.87,2.72Z"/><path d="M303.87,359.11a11.91,11.91,0,1,1,11.91-11.91A11.92,11.92,0,0,1,303.87,359.11Zm0-19.82a7.91,7.91,0,1,0,7.91,7.91A7.92,7.92,0,0,0,303.87,339.29Z"/><path d="M277.08,394a2,2,0,0,1-1-.28,2,2,0,0,1-.69-2.74L297,354.63a2,2,0,1,1,3.43,2.05L278.8,393A2,2,0,0,1,277.08,394Z"/><path d="M394.6,394H369a2,2,0,0,1-2-2V111.21a2,2,0,0,1,2-2H394.6a2,2,0,0,1,2,2V392A2,2,0,0,1,394.6,394ZM371,390H392.6V113.21H371Z"/><path d="M262.82,205.17a2,2,0,0,1-2-2v-90H239.18v90a2,2,0,1,1-4,0v-92a2,2,0,0,1,2-2h25.64a2,2,0,0,1,2,2v92A2,2,0,0,1,262.82,205.17Z"/><path d="M131,394H105.4a2,2,0,0,1-2-2V111.21a2,2,0,0,1,2-2H131a2,2,0,0,1,2,2V392A2,2,0,0,1,131,394Zm-23.64-4H129V113.21H107.4Z"/><path d="M265.49,205.17H250a2,2,0,0,1,0-4h15.2l103.19-31a2,2,0,1,1,1.15,3.83L266.07,205.08A1.9,1.9,0,0,1,265.49,205.17Z"/><path d="M250,205.17H234.51a1.9,1.9,0,0,1-.58-.09L130.46,174a2,2,0,0,1,1.15-3.83l103.19,31H250a2,2,0,0,1,0,4Z"/><path d="M265.49,226.72a2,2,0,0,1-1.91-1.42,2,2,0,0,1,1.33-2.49l103.48-31.13a2,2,0,1,1,1.15,3.83L266.07,226.64A2,2,0,0,1,265.49,226.72Z"/><path d="M204.16,299.7H204L130.88,294a2,2,0,0,1,.31-4l73.12,5.73a2,2,0,0,1-.15,4Z"/><path d="M295.84,299.7H219.28a2,2,0,0,1,0-4h76.48L368.81,290a2,2,0,0,1,.31,4L296,299.7Z"/><path d="M351.93,227.93a2,2,0,0,1-2-2V198.72a2,2,0,1,1,4,0v27.21A2,2,0,0,1,351.93,227.93Z"/><path d="M189.41,340.75a1.76,1.76,0,0,1-.67-.12,2,2,0,0,1-1.21-2.55L202.27,297a2.09,2.09,0,0,1,.26-.49l30.36-42.23a2,2,0,0,1,3.62,1.17v19.85a2,2,0,0,1-.35,1.13l-18.75,27.41L204.3,338a2,2,0,1,1-3.73-1.44l13.19-34.35a2.27,2.27,0,0,1,.21-.41l18.54-27.1v-13l-26.57,36.95L191.3,339.43A2,2,0,0,1,189.41,340.75Z"/><path d="M196.13,359.11A11.91,11.91,0,1,1,208,347.2,11.92,11.92,0,0,1,196.13,359.11Zm0-19.82A7.91,7.91,0,1,0,204,347.2,7.92,7.92,0,0,0,196.13,339.29Z"/><path d="M222.92,394a2,2,0,0,1-1.72-1l-21.64-36.31a2,2,0,1,1,3.43-2.05l21.65,36.31a2,2,0,0,1-.69,2.74A2,2,0,0,1,222.92,394Z"/><path d="M258,332.77H242a2,2,0,0,1-2-2V297.7a2,2,0,0,1,2-2h16a2,2,0,0,1,2,2v33.07A2,2,0,0,1,258,332.77Zm-14-4h12V299.7H244Z"/><path d="M255.22,345.47H244.78a6.52,6.52,0,0,1-6.52-6.51v-3.68a6.52,6.52,0,0,1,6.52-6.51h10.44a6.52,6.52,0,0,1,6.52,6.51V339A6.52,6.52,0,0,1,255.22,345.47Zm-10.44-12.7a2.52,2.52,0,0,0-2.52,2.51V339a2.52,2.52,0,0,0,2.52,2.51h10.44a2.52,2.52,0,0,0,2.52-2.51v-3.68a2.52,2.52,0,0,0-2.52-2.51Z"/><path d="M250,383.52a2,2,0,0,1-2-2v-38a2,2,0,0,1,4,0v38A2,2,0,0,1,250,383.52Z"/><path d="M280.72,242.07a2,2,0,0,1-.39-4L351.54,224a2,2,0,1,1,.78,3.92L281.11,242A1.72,1.72,0,0,1,280.72,242.07Z"/><path d="M280.72,242.07a2,2,0,0,1-2-2v-18a2,2,0,0,1,4,0v18A2,2,0,0,1,280.72,242.07Z"/><path d="M280.72,275.16a2,2,0,0,1-2-2V252.88a2,2,0,0,1,1.61-2l71.21-14.14a2,2,0,0,1,1.66.42,2,2,0,0,1,.73,1.54V262a2,2,0,0,1-1.69,2L281,275.13A1.55,1.55,0,0,1,280.72,275.16Zm2-20.63v16.29l67.21-10.52V241.18Z"/><path d="M148.07,227.93a2,2,0,0,1-2-2V198.72a2,2,0,1,1,4,0v27.21A2,2,0,0,1,148.07,227.93Z"/><path d="M219.28,242.07a1.72,1.72,0,0,1-.39,0l-71.21-14.14a2,2,0,1,1,.78-3.92l71.21,14.14a2,2,0,0,1-.39,4Z"/><path d="M219.28,242.07a2,2,0,0,1-2-2v-18a2,2,0,0,1,4,0v18A2,2,0,0,1,219.28,242.07Z"/><path d="M219.28,275.16a1.55,1.55,0,0,1-.31,0L147.76,264a2,2,0,0,1-1.69-2V238.74a2,2,0,0,1,2.39-2l71.21,14.14a2,2,0,0,1,1.61,2v20.28a2,2,0,0,1-2,2ZM150.07,260.3l67.21,10.52V254.53l-67.21-13.35Z"/><path d="M335.82,184a2,2,0,0,1-1.56-3.24l33.13-41.89a2,2,0,1,1,3.14,2.48l-33.14,41.89A2,2,0,0,1,335.82,184Z"/><path d="M164.18,184a2,2,0,0,1-1.57-.76l-33.14-41.89a2,2,0,0,1,3.14-2.48l33.13,41.89a2,2,0,0,1-1.56,3.24Z"/><path d="M265.49,277.33h-31a2,2,0,0,1,0-4h29V245.82h-6.81a2,2,0,0,1-2-2v-20.1a1.93,1.93,0,0,1,.17-.79l8.8-20.55a2,2,0,1,1,3.68,1.58l-8.65,20.17v17.69h4.44l.37-17.14a2,2,0,0,1,2-2h0a2,2,0,0,1,2,2v50.61A2,2,0,0,1,265.49,277.33Z"/><path d="M234.51,268.43a2,2,0,0,1-2-2V224.72a2,2,0,0,1,2-2,2,2,0,0,1,2,2l.37,17.14h4.43V224.13L232.67,204a2,2,0,1,1,3.68-1.58l8.8,20.55a1.92,1.92,0,0,1,.16.79v20.1a2,2,0,0,1-2,2h-6.8v20.61A2,2,0,0,1,234.51,268.43Z"/><path d="M234.51,226.72a2,2,0,0,1-.58-.08L130.46,195.51a2,2,0,1,1,1.15-3.83l103.48,31.13a2,2,0,0,1-.58,3.91Z"/><path d="M282.36,299.7a2,2,0,0,1-.93-.23l-8.87-4.7a17,17,0,0,1-9.07-15.07v-4.37a2,2,0,1,1,4,0v4.37a13,13,0,0,0,6.94,11.54l8.87,4.7a2,2,0,0,1-.94,3.76Z"/></svg>