<svg id="Layer_1" data-name="Layer 1" xmlns="http://www.w3.org/2000/svg" viewBox="0 0 500 500"><path d="M130.87,248.84c-9.32,0-18.6-2.22-23.08-9.84-3-5.13-2.2-11.21,2.36-17.57,9.58-13.35,34.42-25.65,46.66-23.11a2,2,0,0,1,1.59,2v42.3a2,2,0,0,1-1.37,1.9C156.12,244.78,143.47,248.84,130.87,248.84ZM153.2,202c-10.95,0-31.19,9.78-39.8,21.78-3.62,5.05-4.35,9.5-2.16,13.22,7.9,13.42,36.53,6,43.16,4.12V202C154,202,153.61,202,153.2,202Z"/><path d="M166,270.8a2,2,0,0,1-1.88-1.33l-5.55-15.72-4-10.46a2,2,0,1,1,3.74-1.42l4,10.5,5.07,14.36,71-3.83L235,216.34l-69,3.31a2,2,0,0,1-1.85-1l-9.55-17.37a2,2,0,0,1,3.51-1.93l8.94,16.28,69.67-3.35a2,2,0,0,1,2.1,1.85l3.63,50.55a2,2,0,0,1-.5,1.46,2,2,0,0,1-1.39.68l-74.55,4Z"/><path d="M135.64,257.68a45.12,45.12,0,0,1-12.31-1.4c-13-3.86-17.1-23-17.26-23.85a2,2,0,1,1,3.91-.81c0,.18,3.78,17.64,14.49,20.83,11.39,3.38,35.31-1.28,35.55-1.33a2,2,0,1,1,.77,3.92A148.09,148.09,0,0,1,135.64,257.68Z"/><path d="M243.23,293.23a2,2,0,0,1-2-1.79L238.51,265a2,2,0,0,1,4-.41L245,289.14l110.38-5.63-5.48-51.44a2,2,0,1,1,4-.42l5.71,53.54a2,2,0,0,1-.47,1.51,2,2,0,0,1-1.42.7l-114.39,5.83Z"/><path d="M351.21,227.27a2,2,0,0,1-2-1.79l-1-9.09L247.36,224a2,2,0,0,1-.31-4l102.84-7.79A2,2,0,0,1,352,214l1.17,11a2,2,0,0,1-1.78,2.21Z"/><path d="M248.05,268.11a7.13,7.13,0,0,1-6.77-5,7.11,7.11,0,0,1,4.77-9L362.68,219.8a5,5,0,0,1,3,9.59L250.31,267.74A7.33,7.33,0,0,1,248.05,268.11Zm116-44.51a.9.9,0,0,0-.28,0L247.18,258a3.11,3.11,0,1,0,1.86,5.94l115.38-38.35a1,1,0,0,0-.33-2Z"/><path d="M243.73,225.41h-.32a7.09,7.09,0,0,1-5-2.34h0a7.12,7.12,0,0,1,.62-10.13l91.71-79.82a5,5,0,0,1,6.72,7.46L248.57,223.5A7.1,7.1,0,0,1,243.73,225.41Zm90.32-89.54a1.09,1.09,0,0,0-.67.25L241.67,216a3.11,3.11,0,0,0-.26,4.43h0a3.06,3.06,0,0,0,2.17,1,3.1,3.1,0,0,0,2.26-.83l88.91-82.93a1,1,0,0,0,.07-1.43A1.05,1.05,0,0,0,334.05,135.87Z"/><path d="M173.84,283.86a2,2,0,0,1-1.71-1l-7.89-13.06a2,2,0,1,1,3.42-2.07l7.27,12,66.86-3.52a2,2,0,0,1,.21,4l-68.06,3.59Z"/><path d="M90.36,331H82.42a2,2,0,0,1-1.84-1.22c-.53-1.26-12.87-31.3-1.72-74.56,5.23-20.33,12.63-44.6,18.16-44.82h9.31a2,2,0,0,1,1.57.76l6.76,8.55a2,2,0,0,1-3.14,2.48l-6.16-7.79H97.64c-1,1-6,7.3-14.91,41.82-9.57,37.12-1.07,64.77,1.07,70.79h5.53l14.08-19.73a2,2,0,0,1,1.63-.84h12.28V280.94a2,2,0,0,1,.75-1.56l6.31-5a2,2,0,0,1,2.49,3.13l-5.55,4.42v26.48a2,2,0,0,1-2,2H106.07L92,330.12A2,2,0,0,1,90.36,331Z"/><path d="M138,268.1a2,2,0,0,1-2-2V255.64a2,2,0,0,1,4,0V266.1A2,2,0,0,1,138,268.1Z"/><path d="M107.81,301.05a7.38,7.38,0,0,1-6.87-4.63l-10.42-25.8A5.78,5.78,0,0,1,101,265.68l13.36,24.41a7.4,7.4,0,0,1-6.5,11ZM95.88,266.67a1.7,1.7,0,0,0-.76.18,1.77,1.77,0,0,0-.89,2.28l10.42,25.79a3.41,3.41,0,0,0,4.62,1.81h0a3.37,3.37,0,0,0,1.78-2,3.33,3.33,0,0,0-.25-2.69L97.44,267.6A1.78,1.78,0,0,0,95.88,266.67Z"/><path d="M112.32,223.87a2,2,0,0,1-1.86-1.25l-9.38-23.22a5.79,5.79,0,0,1,10.44-5l10.3,18.84a2,2,0,0,1-3.51,1.92L108,196.37a1.79,1.79,0,0,0-3.22,1.53l9.38,23.22a2,2,0,0,1-1.85,2.75Z"/><path d="M234.15,305.82a20.18,20.18,0,0,1-13.91-5.58l-17.7-16.93a2,2,0,0,1,2.77-2.89L223,297.35a16.19,16.19,0,0,0,12.11,4.44l114.61-7a22.47,22.47,0,0,0,17.91-10.87l14.16-23.62a2,2,0,0,1,2.75-.68,2,2,0,0,1,.68,2.74L371.07,286a26.49,26.49,0,0,1-21.1,12.8l-114.6,7C235,305.81,234.56,305.82,234.15,305.82Z"/><path d="M233.36,319.81a20.84,20.84,0,0,1-14.19-5.56l-5-4.7a2,2,0,1,1,2.73-2.92l5,4.7a16.88,16.88,0,0,0,12.46,4.45l117.3-7A23.15,23.15,0,0,0,370,297.9l11.08-18.1a2,2,0,0,1,3.42,2.09L373.44,300a27.13,27.13,0,0,1-21.54,12.79l-117.31,7C234.18,319.8,233.77,319.81,233.36,319.81Z"/><path d="M215.51,310.09a1.93,1.93,0,0,1-1.06-.31l-41.19-25.92H167.7l-2.1,15.73a2,2,0,1,1-4-.53L164,281.6a2,2,0,0,1,2-1.74h7.89a2,2,0,0,1,1.06.31l38.61,24.3V293a2,2,0,0,1,4,0v15.14a2,2,0,0,1-2,2Z"/><path d="M152.24,371.3c-21.82,0-38.91-10.11-38.91-23s17.09-23,38.91-23,38.9,10.11,38.9,23S174.05,371.3,152.24,371.3Zm0-42c-18.92,0-34.91,8.71-34.91,19s16,19,34.91,19,34.9-8.71,34.9-19S171.16,329.26,152.24,329.26Z"/><path d="M152.24,359.42c-10.12,0-18.05-4.89-18.05-11.14s7.93-11.14,18.05-11.14,18,4.9,18,11.14S162.36,359.42,152.24,359.42Zm0-18.28c-8.28,0-14.05,3.77-14.05,7.14s5.77,7.14,14.05,7.14,14-3.76,14-7.14S160.52,341.14,152.24,341.14Z"/><path d="M408.87,352.83a24,24,0,0,1-9.46-1.8c-3.88-1.71-6.2-4.39-6.53-7.57s1.39-6.28,4.83-8.75a27.39,27.39,0,0,1,24.54-2.56c3.88,1.7,6.2,4.39,6.53,7.56h0c.65,6.21-6.72,11.91-16.79,13A30.05,30.05,0,0,1,408.87,352.83Zm3.95-18.49c-.89,0-1.8.05-2.73.14A21.37,21.37,0,0,0,400,338c-2.19,1.57-3.35,3.43-3.18,5.09s1.69,3.23,4.16,4.31a21.27,21.27,0,0,0,10.56,1.33c8.23-.86,13.58-5.2,13.23-8.56h0c-.18-1.66-1.69-3.23-4.17-4.32A19.62,19.62,0,0,0,412.82,334.34Z"/><path d="M189.14,351.92a2,2,0,0,1-2-2V320.08c0-10.31-16-19-34.9-19s-34.91,8.71-34.91,19v28.2a2,2,0,0,1-4,0v-28.2c0-12.91,17.09-23,38.91-23s38.9,10.11,38.9,23v29.84A2,2,0,0,1,189.14,351.92Z"/><path d="M406.29,364.85a51.94,51.94,0,0,1-20.67-3.94c-8-3.52-12.82-9-13.48-15.28s2.9-12.63,10-17.74c6.8-4.87,16.13-8.14,26.27-9.2s19.95.21,27.61,3.57c8,3.53,12.82,8.95,13.48,15.28h0c1.34,12.84-14.61,24.68-36.3,26.94A65.37,65.37,0,0,1,406.29,364.85Zm9.11-42.53a63.17,63.17,0,0,0-6.54.35c-9.47,1-18.12,4-24.36,8.47-5.91,4.24-8.89,9.23-8.38,14.07s4.45,9.12,11.11,12c7,3.09,16.12,4.24,25.58,3.26,18.82-2,33.81-12.3,32.74-22.55h0c-.51-4.84-4.45-9.11-11.11-12A47.86,47.86,0,0,0,415.4,322.32Z"/><path d="M374.13,347.42a2,2,0,0,1-2-1.79l-2.93-28.05c-.66-6.33,2.9-12.63,10-17.75,6.8-4.87,16.13-8.13,26.27-9.19s19.95.2,27.61,3.57c8,3.52,12.82,9,13.48,15.28l3.1,29.68a2,2,0,1,1-4,.42l-3.1-29.68c-.51-4.84-4.45-9.12-11.11-12-7-3.09-16.12-4.24-25.58-3.25s-18.12,4-24.36,8.47c-5.91,4.23-8.89,9.23-8.38,14.07l2.93,28a2,2,0,0,1-1.78,2.2Z"/><path d="M356.09,217.73a2,2,0,0,1-1.35-.52,14.57,14.57,0,0,1-4.91-9.15c-.77-7.39,4.89-14.64,15.14-19.4a2,2,0,0,1,1.68,3.63c-8.5,3.94-13.42,9.83-12.84,15.36a10.44,10.44,0,0,0,3.64,6.61,2,2,0,0,1-1.36,3.47Z"/><path d="M408.91,219.44a2,2,0,0,1-1.06-.31,2,2,0,0,1-.64-2.75l4.64-7.42.09-.13a10.64,10.64,0,0,0,2.4-7.51c-.93-8.88-15.57-14.93-32-13.22-.58.06-1.15.13-1.72.21a2,2,0,0,1-.54-4c.61-.09,1.23-.16,1.85-.23,19.19-2,35.17,5.37,36.37,16.79a14.64,14.64,0,0,1-3.12,10.24l-4.59,7.35A2,2,0,0,1,408.91,219.44Z"/><path d="M351.82,209.86a2,2,0,0,1-2-1.8l-2.57-24.65c-.59-5.65,2.57-11.27,8.91-15.81,6-4.31,14.25-7.19,23.2-8.13,19.2-2,35.18,5.37,36.37,16.79l2.73,26.08a2,2,0,1,1-4,.41l-2.73-26.08c-.92-8.88-15.57-14.93-32-13.22-8.28.86-15.84,3.49-21.29,7.4-5.12,3.67-7.7,8-7.27,12.15l2.58,24.65a2,2,0,0,1-1.78,2.2Z"/><path d="M187.92,218a2.08,2.08,0,0,1-.68-.12,2,2,0,0,1-1.2-2.56,9,9,0,0,0,.53-3c0-8.84-13.81-16.32-30.17-16.32-17.2,0-30.17,6.46-30.17,15a2,2,0,0,1-4,0c0-11,14.37-19,34.17-19,19.16,0,34.17,8.93,34.17,20.32a12.9,12.9,0,0,1-.77,4.37A2,2,0,0,1,187.92,218Z"/><path d="M188.57,215.7a2,2,0,0,1-2-2v-26c0-8.85-13.81-16.33-30.17-16.33s-30.17,7.48-30.17,16.33v21.83a2,2,0,0,1-4,0V187.69c0-11.4,15-20.33,34.17-20.33s34.17,8.93,34.17,20.33v26A2,2,0,0,1,188.57,215.7Z"/><path d="M132.21,304.15a8.59,8.59,0,0,1-8.59-8.58v-26a8.59,8.59,0,0,1,17.17,0v26A8.59,8.59,0,0,1,132.21,304.15Zm0-39.14a4.59,4.59,0,0,0-4.59,4.58v26a4.59,4.59,0,0,0,9.17,0v-26A4.59,4.59,0,0,0,132.21,265Z"/><path d="M132.21,277.5c-5,0-8.59-2.22-8.59-5.29a2,2,0,0,1,4,0c.16.3,1.79,1.29,4.59,1.29s4.42-1,4.6-1.38a2,2,0,0,1,2-2,2,2,0,0,1,2,2C140.79,275.28,137.18,277.5,132.21,277.5Z"/><path d="M132.21,286.23c-5,0-8.59-2.23-8.59-5.3a2,2,0,0,1,4,0c.16.3,1.79,1.3,4.59,1.3s4.42-1,4.6-1.39a1.94,1.94,0,0,1,2-1.95,2,2,0,0,1,2,2C140.79,284,137.18,286.23,132.21,286.23Z"/><path d="M132.21,295c-5,0-8.59-2.23-8.59-5.29a2,2,0,0,1,4,0c.16.3,1.79,1.29,4.59,1.29s4.42-1,4.6-1.39a2,2,0,0,1,2-1.95,2,2,0,0,1,2,2.05C140.79,292.72,137.18,295,132.21,295Z"/><path d="M388.53,295.43a8.6,8.6,0,0,1-8.59-8.59V254.6A8.56,8.56,0,0,1,382,249a2,2,0,1,1,3,2.59,4.59,4.59,0,0,0-1.1,3v32.24a4.59,4.59,0,1,0,9.17,0V254.6a4.54,4.54,0,0,0-1.49-3.38,2,2,0,0,1,2.71-2.95,8.62,8.62,0,0,1,2.78,6.33v32.24A8.59,8.59,0,0,1,388.53,295.43Z"/><path d="M388.53,264.51c-4.9,0-8.59-2.5-8.59-5.82a2,2,0,0,1,4,0c0,.53,1.61,1.82,4.59,1.82s4.58-1.29,4.58-1.82a2,2,0,1,1,4,0C397.11,262,393.42,264.51,388.53,264.51Z"/><path d="M388.53,274.63c-4.9,0-8.59-2.5-8.59-5.82a2,2,0,0,1,4,0c0,.53,1.61,1.82,4.59,1.82s4.58-1.29,4.58-1.82a2,2,0,0,1,4,0C397.11,272.13,393.42,274.63,388.53,274.63Z"/><path d="M388.53,284.75c-4.9,0-8.59-2.5-8.59-5.82a2,2,0,0,1,4,0c0,.53,1.61,1.82,4.59,1.82s4.58-1.29,4.58-1.82a2,2,0,1,1,4,0C397.11,282.25,393.42,284.75,388.53,284.75Z"/><path d="M388.53,256.21a6.38,6.38,0,0,1-6.38-6.38v-3.3a6.38,6.38,0,1,1,12.75,0v3.3A6.38,6.38,0,0,1,388.53,256.21Zm0-12.06a2.39,2.39,0,0,0-2.38,2.38v3.3a2.38,2.38,0,1,0,4.75,0v-3.3A2.38,2.38,0,0,0,388.53,244.15Z"/><path d="M373.34,221.45a7.83,7.83,0,0,1-7.81-7.81V185.18a7.84,7.84,0,0,1,1.87-5.07,2,2,0,1,1,3,2.6,3.77,3.77,0,0,0-.91,2.47v28.46a3.81,3.81,0,0,0,7.62,0V185.18a3.79,3.79,0,0,0-1.23-2.81,2,2,0,0,1,2.7-3,7.84,7.84,0,0,1,2.53,5.76v28.46A7.82,7.82,0,0,1,373.34,221.45Z"/><path d="M373.34,194.16c-4.45,0-7.81-2.31-7.81-5.37a2,2,0,1,1,4,0c0,.35,1.42,1.37,3.81,1.37s3.77-1,3.81-1.37a2,2,0,1,1,4,0C381.15,191.85,377.79,194.16,373.34,194.16Z"/><path d="M373.34,203.09c-4.45,0-7.81-2.31-7.81-5.37a2,2,0,0,1,4,0c0,.35,1.42,1.37,3.81,1.37s3.77-1,3.81-1.37a2,2,0,0,1,4,0C381.15,200.78,377.79,203.09,373.34,203.09Z"/><path d="M373.34,212c-4.45,0-7.81-2.31-7.81-5.37a2,2,0,1,1,4,0c0,.35,1.42,1.37,3.81,1.37s3.77-1,3.81-1.37a2,2,0,1,1,4,0C381.15,209.71,377.79,212,373.34,212Z"/><path d="M373.34,186.83a5.87,5.87,0,0,1-5.86-5.86v-2.91a5.86,5.86,0,0,1,11.72,0V181A5.87,5.87,0,0,1,373.34,186.83Zm0-10.63a1.86,1.86,0,0,0-1.86,1.86V181a1.86,1.86,0,0,0,3.72,0v-2.91A1.86,1.86,0,0,0,373.34,176.2Z"/><path d="M388.52,244.15a2,2,0,0,1-2-1.86l-.89-13.42-36.27-12.74a2,2,0,0,1,1.33-3.77l37.51,13.17a2,2,0,0,1,1.34,1.76l1,14.73a2,2,0,0,1-1.86,2.13Z"/><path d="M418.18,293.23a2,2,0,0,1-2-1.74l-4.69-35.55a2,2,0,0,1,1.35-2.16l7.44-2.47-4.06-24.6-7.55-3a2,2,0,0,1-1.26-1.63l-2.26-19.62-21.61,2.3,5.45,10a1.92,1.92,0,0,1,.24.9l.3,11.69a2,2,0,0,1-4,.1l-.28-11.2-6.65-12.21a2,2,0,0,1,0-1.88,2,2,0,0,1,1.56-1.06l26.56-2.83a2,2,0,0,1,2.2,1.76l2.35,20.4,7.49,3a2,2,0,0,1,1.24,1.53l4.53,27.4a2,2,0,0,1-1.35,2.23l-7.49,2.48L420.16,291a2,2,0,0,1-1.72,2.24A1.18,1.18,0,0,1,418.18,293.23Z"/><path d="M134.21,323.32a2,2,0,0,1-1.87-1.29L130.06,316a2,2,0,0,1-.08-1.13l1.56-7.16a2,2,0,1,1,3.91.85L134,315.1l2.08,5.52a2,2,0,0,1-1.17,2.57A1.94,1.94,0,0,1,134.21,323.32Z"/><path d="M152.24,321.64a2,2,0,0,1-1.87-1.3l-2.29-6.07a2.07,2.07,0,0,1-.08-1.13l1.56-7.16a2,2,0,0,1,3.91.86L152,313.42l2.08,5.52a2,2,0,0,1-1.17,2.57A1.93,1.93,0,0,1,152.24,321.64Z"/><path d="M169.43,323.32a2,2,0,0,1-1.87-1.29L165.27,316a2.08,2.08,0,0,1-.08-1.13l1.56-7.16a2,2,0,1,1,3.91.85l-1.44,6.58,2.08,5.52a2,2,0,0,1-1.17,2.57A1.93,1.93,0,0,1,169.43,323.32Z"/><path d="M140.46,191.62a2,2,0,0,1-1.87-1.29l-2-5.33a2,2,0,0,1-.09-1.13l1.37-6.29a2,2,0,1,1,3.91.85l-1.24,5.71,1.8,4.78a2,2,0,0,1-1.17,2.58A2.16,2.16,0,0,1,140.46,191.62Z"/><path d="M156.29,190.15a2,2,0,0,1-1.87-1.3l-2-5.33a2.07,2.07,0,0,1-.08-1.13l1.37-6.29a2,2,0,1,1,3.91.85l-1.24,5.71,1.79,4.78A2,2,0,0,1,157,190,2,2,0,0,1,156.29,190.15Z"/><path d="M171.39,191.62a2,2,0,0,1-1.87-1.29l-2-5.33a2.07,2.07,0,0,1-.08-1.13l1.37-6.29a2,2,0,1,1,3.91.85l-1.25,5.71,1.8,4.78a2,2,0,0,1-1.17,2.58A2.15,2.15,0,0,1,171.39,191.62Z"/><path d="M392.9,318.42a2,2,0,0,1-1.82-1.18l-2.68-5.9a2,2,0,0,1-.16-1.12l1.08-7.25a2,2,0,0,1,4,.59l-1,6.66,2.43,5.37a2,2,0,0,1-1,2.65A2,2,0,0,1,392.9,318.42Z"/><path d="M410.77,315.54a2,2,0,0,1-1.82-1.18l-2.68-5.9a2,2,0,0,1-.16-1.13l1.08-7.24a2,2,0,1,1,4,.59l-1,6.66,2.43,5.37a2,2,0,0,1-1,2.64A2,2,0,0,1,410.77,315.54Z"/><path d="M428,316.07a2,2,0,0,1-1.82-1.18l-2.69-5.9a2,2,0,0,1-.15-1.12l1.07-7.25a2,2,0,1,1,4,.59l-1,6.66,2.44,5.37a2,2,0,0,1-1,2.64A2,2,0,0,1,428,316.07Z"/><path d="M384.93,181.17A2,2,0,0,1,383.1,180L380.81,175a2.05,2.05,0,0,1-.16-1.12l.93-6.2a2,2,0,1,1,3.95.59l-.83,5.62,2.05,4.51a2,2,0,0,1-1.82,2.82Z"/><path d="M399.69,181.63a2,2,0,0,1-1.82-1.17l-2.3-5.05a2,2,0,0,1-.15-1.13l.92-6.19a2,2,0,1,1,4,.59l-.83,5.61,2.05,4.51a2,2,0,0,1-1,2.65A2,2,0,0,1,399.69,181.63Z"/></svg>