<svg id="Layer_1" data-name="Layer 1" xmlns="http://www.w3.org/2000/svg" viewBox="0 0 500 500"><path d="M295.53,313.6a2,2,0,0,1-2-2V306l-7.79-7.09a2,2,0,0,1-.56-2.09l10.07-31.25a2,2,0,0,1,1.31-1.3l44.94-13.83-8.59-12.21-45.19,13.9L278,282.41a2,2,0,1,1-3.8-1.23l10.06-31.25a2,2,0,0,1,1.32-1.3L333.12,234a2,2,0,0,1,2.23.76l11,15.64.07.11h0l.09.18a2,2,0,0,1,.14,1.37v0l-9.7,35v10.33a2,2,0,0,1-1.33,1.89l-39.41,14.14A2,2,0,0,1,295.53,313.6Zm-6.15-16.76,7.5,6.81a2,2,0,0,1,.65,1.48v3.63L333,296.05v-9.21a1.88,1.88,0,0,1,.07-.53l8.8-31.76-43.08,13.26Z"/><path d="M315.19,293.57a8.4,8.4,0,0,1-5.23-1.74,9,9,0,0,1-3.25-7.63,15.83,15.83,0,0,1,11-14,8.59,8.59,0,0,1,11.44,9,15,15,0,0,1-3.33,8.67h0a15,15,0,0,1-7.62,5.32A11.07,11.07,0,0,1,315.19,293.57Zm5.4-19.78a6.9,6.9,0,0,0-1.85.27,11.86,11.86,0,0,0-8,10.26,4.62,4.62,0,0,0,6.36,5,11.86,11.86,0,0,0,8-10.27,5.11,5.11,0,0,0-1.72-4.35A4.46,4.46,0,0,0,320.59,273.79Zm3.61,12.81h0Z"/><path d="M324.61,275.1a2,2,0,0,1-1.26-.44l-12.73-10.32a2,2,0,1,1,2.52-3.11l12.73,10.32a2,2,0,0,1-1.26,3.55Z"/><path d="M310.16,292a2,2,0,0,1-1.26-.45l-16.39-13.27a2,2,0,0,1-.29-2.82,2,2,0,0,1,2.81-.29l16.39,13.27a2,2,0,0,1-1.26,3.56Z"/><path d="M257.9,238.73a15.87,15.87,0,0,1-13.06-6.81L162.07,110.86A15.89,15.89,0,0,1,188.16,92.7l82.77,121.06a15.92,15.92,0,0,1-4,22.12h0A15.82,15.82,0,0,1,257.9,238.73ZM175.11,89.89a11.89,11.89,0,0,0-9.75,18.69l82.77,121.07a11.9,11.9,0,0,0,16.55,2.95h0a11.91,11.91,0,0,0,3-16.56L184.87,95A11.88,11.88,0,0,0,175.11,89.89Zm90.71,144.35h0Z"/><path d="M332.14,215.24a15.9,15.9,0,0,1-13.06-6.81l-73.65-108A15.89,15.89,0,0,1,271.52,82.3l73.66,108a15.9,15.9,0,0,1-4,22.11h0A15.85,15.85,0,0,1,332.14,215.24ZM258.46,79.49a11.89,11.89,0,0,0-9.74,18.69l73.65,108a11.91,11.91,0,0,0,16.55,3h0a11.9,11.9,0,0,0,3-16.56l-73.65-108a11.82,11.82,0,0,0-7.65-4.9A12.73,12.73,0,0,0,258.46,79.49Z"/><path d="M327.06,237.91a2,2,0,0,1-2-2V212.79a2,2,0,0,1,4,0v23.12A2,2,0,0,1,327.06,237.91Z"/><path d="M343.07,249.78a2,2,0,0,1-2-2v-38.2a2,2,0,1,1,4,0v38.2A2,2,0,0,1,343.07,249.78Z"/><path d="M258.66,280.36a15.94,15.94,0,0,1-9.86-3.79A2,2,0,0,1,248,275V235.91a2,2,0,0,1,4,0V274c4.51,3.19,8.76,3.19,13.26,0V234.91a2,2,0,0,1,4,0V275a2,2,0,0,1-.77,1.57A15.91,15.91,0,0,1,258.66,280.36Z"/><path d="M321.06,240.55a2,2,0,0,1-2-1.86c-1.82-27.33-10.22-45.42-25.66-55.28a25.2,25.2,0,0,0-18.85-3.3l-24.09,5.28a2,2,0,1,1-.85-3.91l24.08-5.28A29.28,29.28,0,0,1,295.55,180c16.59,10.6,25.59,29.69,27.5,58.38a2,2,0,0,1-1.86,2.13Z"/><path d="M299,246.16a2,2,0,0,1-2-1.87c-2.34-35-15.31-50.29-25.79-57a25,25,0,0,0-12-3.85,2,2,0,0,1,.22-4,29,29,0,0,1,14,4.47C284.58,191.12,298.5,207.38,301,244a2,2,0,0,1-1.86,2.13Z"/><path d="M287.08,299.45a2,2,0,0,1-1.63-.85l-10.84-15.41-8.55-6.61a2,2,0,0,1,2.45-3.17l8.78,6.81a1.68,1.68,0,0,1,.41.43l11,15.65a2,2,0,0,1-.49,2.79A2,2,0,0,1,287.08,299.45Z"/><path d="M263.41,337a2,2,0,0,1-2-1.93l-1.08-29-10.41-16.21-11.88-9.21a2,2,0,0,1,.52-3.45l10.76-4.07a2,2,0,0,1,1.41,3.75l-7.42,2.8,9.33,7.23a2,2,0,0,1,.46.5l10.89,17a2,2,0,0,1,.32,1l1.09,29.56a2,2,0,0,1-1.92,2.08Z"/><path d="M263.41,337a2,2,0,0,1-.71-3.87l97.72-37.3-1-18.55L349,261.06l-8.5-6.59A2,2,0,0,1,343,251.3l8.77,6.81a1.82,1.82,0,0,1,.46.5l10.89,16.95a2,2,0,0,1,.32,1l1.09,20.54a2,2,0,0,1-1.28,2l-99.08,37.82A2,2,0,0,1,263.41,337Z"/><path d="M222.18,253.56a1.89,1.89,0,0,1-.88-.2L157.16,221.9a2,2,0,0,1-1.12-2,2,2,0,0,1,1.44-1.75l67.75-19.59a2,2,0,1,1,1.11,3.85l-62.78,18.15,58.74,28.8,27.06-9.73a2,2,0,1,1,1.35,3.76l-27.86,10A2.19,2.19,0,0,1,222.18,253.56Z"/><path d="M222.18,288.11a2.06,2.06,0,0,1-1.12-.33,2,2,0,0,1-.88-1.67V251.56a2,2,0,0,1,4,0v31.56l14.33-5.91a2,2,0,0,1,1.53,3.7l-17.1,7A2.06,2.06,0,0,1,222.18,288.11Z"/><path d="M138.58,253.56a2,2,0,0,1-.71-3.87l19.46-7.4a2,2,0,1,1,1.42,3.74l-19.46,7.4A2,2,0,0,1,138.58,253.56Z"/><path d="M221.39,427.67c-15.51,0-32.85-17.44-40.85-42.41-9-28.25-2.75-55.61,14-61,8.33-2.67,17.83.32,26.75,8.41,8.63,7.83,15.76,19.57,20.09,33.08,9,28.25,2.75,55.6-14,61A19.66,19.66,0,0,1,221.39,427.67ZM200.7,327.33a15.9,15.9,0,0,0-4.91.76c-14.68,4.7-19.81,29.8-11.44,56,7.45,23.28,23.14,39.66,36.85,39.66a16.36,16.36,0,0,0,5-.76c14.68-4.7,19.81-29.8,11.44-55.95-4.11-12.85-10.85-24-19-31.33C212.6,330.18,206.39,327.33,200.7,327.33Z"/><path d="M219.76,415c-4.74,0-9.89-2.66-14.84-7.76-5.93-6.11-11-15.08-14.25-25.26s-4.35-20.43-3.07-28.84c1.35-8.9,5.22-14.81,10.9-16.63s12.26.74,18.53,7.2c5.93,6.11,11,15.08,14.25,25.26s4.35,20.43,3.07,28.84c-1.35,8.9-5.23,14.81-10.9,16.62A11.81,11.81,0,0,1,219.76,415Zm-17.63-75a8,8,0,0,0-2.41.36c-4.09,1.31-7.07,6.2-8.17,13.42-1.19,7.81-.15,17.41,2.93,27s7.8,18,13.31,23.69c5.08,5.23,10.34,7.48,14.44,6.18s7.07-6.21,8.17-13.42c1.19-7.81.15-17.41-2.93-27s-7.8-18-13.31-23.69C210,342.28,205.77,340,202.13,340Z"/><path d="M226.77,426.84a2,2,0,0,1-.51-3.93l10.25-2.72c7.05-2.28,12.19-9.33,14.48-19.86,2.38-10.93,1.38-24.18-2.82-37.31s-11.08-24.5-19.38-32c-7.94-7.2-16.19-10-23.23-7.77l-12.73,6.31a2,2,0,0,1-1.78-3.58l12.87-6.39.28-.11c8.49-2.72,18.18.33,27.28,8.58,8.81,8,16.09,20,20.5,33.76s5.45,27.77,2.92,39.39c-2.61,12-8.73,20.11-17.22,22.82l-.1,0-10.3,2.74A2.22,2.22,0,0,1,226.77,426.84Z"/><path d="M348,378.3c-10.37,0-21.64-7.66-30.64-21.24a2,2,0,0,1,3.33-2.21c9.64,14.54,22.29,21.87,32.24,18.69a16.84,16.84,0,0,0,7.38-4.88,2,2,0,0,1,3,2.69,20.8,20.8,0,0,1-9.12,6A20,20,0,0,1,348,378.3Z"/><path d="M353.53,377.45a2,2,0,0,1-.51-3.94l10.25-2.72c15-4.84,20.21-30.47,11.66-57.17a78.77,78.77,0,0,0-14.59-27.05,2,2,0,0,1,3.05-2.6,83.08,83.08,0,0,1,15.35,28.43c9.23,28.83,2.82,56.74-14.3,62.22l-.09,0L354,377.38A2.24,2.24,0,0,1,353.53,377.45Zm10.3-4.74h0Z"/><path d="M280.63,412.63l-.29,0-29.28-4.25a2,2,0,1,1,.57-4l27,3.92v-37a2,2,0,0,1,1.22-1.84L371,331.28a2,2,0,0,1,2.72,2.32l-9.25,37.53a2,2,0,0,1-1,1.29,2,2,0,0,1-1.61.12l-41.44-14.7a2,2,0,0,1-.9-.64l-36.86,15.45v38a2,2,0,0,1-2,2Zm43.93-57.56,36.52,13,7.77-31.52Z"/><path d="M371.75,335.12a2,2,0,0,1-1.33-.5L353.1,319.26a2,2,0,0,1-.67-1.5v-17.5a2,2,0,0,1,4,0v16.6l16.65,14.77a2,2,0,0,1,.16,2.82A2,2,0,0,1,371.75,335.12Z"/><path d="M177.94,364a2,2,0,0,1-1.27-.45l-39.8-32.6a2,2,0,0,1-.74-1.56l.45-77.79a2,2,0,0,1,2-2h0a2,2,0,0,1,2,2l-.44,76.83,39.07,32a2,2,0,0,1,.27,2.82A2,2,0,0,1,177.94,364Z"/><path d="M138.13,323.37a1.94,1.94,0,0,1-1-.25c-.73-.41-17.81-10.11-20-31.12-2.23-21.25,19.06-34.13,20-34.67a2,2,0,0,1,2,3.44c-.2.12-20,12.13-18,30.81,2,19,17.82,27.95,18,28a2,2,0,0,1-1,3.75Z"/><path d="M222.17,288.11a2,2,0,0,1-1-.25l-64.14-35.57a2,2,0,0,1-1-1.74V220.11a2,2,0,0,1,4,0v29.26l63.11,35a2,2,0,0,1-1,3.75Z"/></svg>